<?xml version="1.0" encoding="UTF-8" standalone="no"?>
<svg
   xmlns:dc="http://purl.org/dc/elements/1.1/"
   xmlns:cc="http://creativecommons.org/ns#"
   xmlns:rdf="http://www.w3.org/1999/02/22-rdf-syntax-ns#"
   xmlns:svg="http://www.w3.org/2000/svg"
   xmlns="http://www.w3.org/2000/svg"
   xmlns:sodipodi="http://sodipodi.sourceforge.net/DTD/sodipodi-0.dtd"
   xmlns:inkscape="http://www.inkscape.org/namespaces/inkscape"
   width="11.49301mm"
   height="11.209467mm"
   viewBox="0 0 11.49301 11.209467"
   version="1.1"
   id="svg1210"
   inkscape:version="1.0.2-2 (e86c870879, 2021-01-15)"
   sodipodi:docname="github_logo.svg">
  <defs
     id="defs1204" />
  <sodipodi:namedview
     id="base"
     pagecolor="#ffffff"
     bordercolor="#666666"
     borderopacity="1.0"
     inkscape:pageopacity="0.0"
     inkscape:pageshadow="2"
     inkscape:zoom="7.9195959"
     inkscape:cx="13.639255"
     inkscape:cy="22.948296"
     inkscape:document-units="mm"
     inkscape:current-layer="layer1"
     inkscape:document-rotation="0"
     showgrid="false"
     fit-margin-top="0"
     fit-margin-left="0"
     fit-margin-right="0"
     fit-margin-bottom="0"
     inkscape:window-width="1254"
     inkscape:window-height="864"
     inkscape:window-x="2076"
     inkscape:window-y="1"
     inkscape:window-maximized="0" />
  <metadata
     id="metadata1207">
    <rdf:RDF>
      <cc:Work
         rdf:about="">
        <dc:format>image/svg+xml</dc:format>
        <dc:type
           rdf:resource="http://purl.org/dc/dcmitype/StillImage" />
        <dc:title></dc:title>
      </cc:Work>
    </rdf:RDF>
  </metadata>
  <g
     inkscape:label="Layer 1"
     inkscape:groupmode="layer"
     id="layer1"
     transform="translate(-123.52129,-23.87741)">
    <path
       d="m 129.26733,23.87741 c -3.17324,0 -5.74604,2.572808 -5.74604,5.74675 0,2.538941 1.64641,4.69265 3.92994,5.452886 0.28751,0.05256 0.39229,-0.124883 0.39229,-0.277283 0,-0.136173 -0.005,-0.49777 -0.008,-0.977195 -1.59844,0.347133 -1.93569,-0.770467 -1.93569,-0.770467 -0.26141,-0.663927 -0.63818,-0.840669 -0.63818,-0.840669 -0.52176,-0.356306 0.0395,-0.34925 0.0395,-0.34925 0.57679,0.04057 0.88018,0.592314 0.88018,0.592314 0.51259,0.878064 1.34514,0.624417 1.67252,0.477308 0.0522,-0.371122 0.20038,-0.624416 0.36477,-0.767997 -1.27599,-0.144992 -2.61761,-0.638175 -2.61761,-2.840214 0,-0.627239 0.22402,-1.140178 0.59161,-1.541991 -0.0593,-0.145345 -0.25647,-0.729545 0.0561,-1.520825 0,0 0.4826,-0.154517 1.58045,0.589138 0.45826,-0.127705 0.95003,-0.191205 1.43863,-0.193322 0.48789,0.0021 0.97966,0.06562 1.43862,0.193322 1.09714,-0.743655 1.57868,-0.589138 1.57868,-0.589138 0.31362,0.79128 0.11642,1.37548 0.0572,1.520825 0.3683,0.401813 0.59091,0.914752 0.59091,1.541991 0,2.207683 -1.34373,2.693458 -2.62396,2.835628 0.20637,0.177447 0.39017,0.528108 0.39017,1.06433 0,0.767998 -0.007,1.387828 -0.007,1.576212 0,0.153811 0.10337,0.332669 0.39511,0.276577 2.28177,-0.761647 3.92677,-2.913944 3.92677,-5.45218 0,-3.173942 -2.57316,-5.74675 -5.7471,-5.74675"
       style="fill:#ffffff;fill-opacity:1;fill-rule:evenodd;stroke:none;stroke-width:0.352778"
       id="path198" />
  </g>
</svg>
